<svg width="99" height="39" viewBox="0 0 99 39" fill="none" xmlns="http://www.w3.org/2000/svg">
<g clip-path="url(#clip0_1743_17836)">
<path fill-rule="evenodd" clip-rule="evenodd" d="M91.5445 16.5488H89.1742L88.9779 17.4177H91.5445C93.8927 17.4177 94.685 18.0565 94.685 19.9492V20.8655C94.1027 20.2696 93.0732 19.9675 91.6183 19.9675C89.2971 19.9675 88.1688 20.9734 88.1688 23.0418V23.1924C88.1688 25.1318 89.2801 26.1154 91.471 26.1154H92.0609C94.3819 26.1154 95.5593 25.1318 95.5593 23.1924V19.9492C95.5593 17.5339 94.396 16.5488 91.5445 16.5488ZM94.685 23.3178C94.685 24.7058 93.9426 25.2466 92.0365 25.2466H91.6677C89.8283 25.2466 89.0434 24.6319 89.0434 23.1924V23.0418C89.0434 21.4781 89.7913 20.8114 91.5445 20.8114H91.6921C93.79 20.8114 94.685 21.4557 94.685 22.9663V23.3178V23.3178ZM30.6793 18.2535L31.1456 15.9325H27.1321V12.7619L24.3147 13.1968V22.6671C24.3147 25.9412 25.5711 26.9154 28.9967 26.9154H30.4964L30.9629 24.6149H29.1993C27.6388 24.6149 27.1318 24.2217 27.1318 22.4805V18.2535H30.6793V18.2535ZM11.322 11.6632V21.8385C11.322 25.6102 13.0244 27.185 16.7339 27.185C20.585 27.185 22.2877 25.6516 22.2877 21.859V20.8852C22.2877 17.3209 20.7064 15.58 17.2609 15.58C16.1661 15.58 14.9702 15.8078 14.1594 16.4501V11.2073L11.322 11.663V11.6632ZM16.8351 17.8593C18.7809 17.8593 19.4703 18.6469 19.4703 20.9884V21.859C19.4703 24.1383 18.7809 24.9262 16.7946 24.9262C14.8083 24.9262 14.1186 24.1383 14.1186 21.8383V20.6572C14.1186 18.564 14.8081 17.8593 16.8348 17.8593H16.8351ZM37.4898 15.58C33.7803 15.58 32.0777 17.1755 32.0777 20.8228V21.3824C32.0777 24.843 33.5574 26.5215 37.0435 26.5215C38.1585 26.5215 39.2734 26.3146 40.0638 25.6719V26.0868C40.0638 28.0348 39.2329 28.6766 37.2869 28.6766H36.1218C35.4558 28.6887 35.1532 28.8096 34.7519 29.4823L34.7497 29.4813C31.4075 34.8889 25.6051 38.1926 19.2817 38.1926C9.1923 38.1926 0.984277 29.8012 0.984277 19.4859C0.984277 9.17092 9.1923 0.779506 19.2817 0.779506C26.3686 0.779506 32.8157 4.97546 35.832 11.5052H36.6728C33.5987 4.51314 26.7838 0 19.2817 0C8.77219 0 0.221802 8.74143 0.221802 19.4859C0.221802 30.2307 8.77219 38.9721 19.2817 38.9721C25.4625 38.9721 31.1663 35.9424 34.7223 30.9146H37.449C41.0368 30.9146 42.8814 29.5264 42.8814 25.9829V20.6364C42.8814 17.1133 41.118 15.58 37.4898 15.58V15.58ZM40.0843 21.7346C40.0843 23.6826 39.4153 24.2834 37.49 24.2834C35.3208 24.2834 34.8953 23.5167 34.8953 21.2582V20.906C34.8953 18.6674 35.2804 17.8593 37.4898 17.8593C39.6585 17.8593 40.0843 18.6469 40.0843 20.9265V21.7346V21.7346ZM97.3649 26.1154H98.2397V12.9542H97.3652V26.1154H97.3649ZM77.662 17.4179L77.8583 16.5488H73.9466V14.0642L73.0477 14.2283V22.74C73.0477 25.1639 73.936 26.0653 76.3249 26.0653H77.6166L77.78 25.1965H76.3249C74.5245 25.1965 73.9466 24.612 73.9466 22.7898V17.4182H77.6623L77.662 17.4179ZM85.7595 22.3379C85.7595 24.5779 85.074 25.2967 82.9389 25.2967C80.8667 25.2967 80.1672 24.5502 80.1672 22.3379V16.5488H79.2682V22.3379C79.2682 25.0925 80.2975 26.1655 82.9386 26.1655C85.5635 26.1655 86.634 25.057 86.634 22.3379V16.5488H85.7595V22.3379ZM65.98 21.7094V20.9047C65.98 18.3302 66.8403 17.4179 69.2679 17.4179H71.3191L71.5146 16.5488H69.2681C66.3727 16.5488 65.0808 17.8921 65.0808 20.9045V21.7094C65.0808 24.7218 66.3725 26.0653 69.2681 26.0653H71.343L71.5393 25.1965H69.2681C66.9017 25.1965 65.9803 24.2187 65.9803 21.7094H65.98ZM59.5068 16.5488H57.1362L56.9404 17.4177H59.5068C61.8364 17.4177 62.6223 18.0565 62.6223 19.9492V20.8655C62.0405 20.2696 61.011 19.9675 59.5556 19.9675C57.2349 19.9675 56.1066 20.9734 56.1066 23.0418V23.1924C56.1066 25.1318 57.2255 26.1154 59.4327 26.1154H60.0229C62.3283 26.1154 63.4971 25.1318 63.4971 23.1924V19.9492C63.4971 17.5339 62.3409 16.5488 59.5068 16.5488ZM62.6223 23.3178C62.6223 24.724 61.9112 25.2466 59.9985 25.2466H59.6297C57.7735 25.2466 56.9811 24.6319 56.9811 23.1924V23.0418C56.9811 21.4781 57.7291 20.8114 59.4821 20.8114H59.6297C61.7273 20.8114 62.6223 21.4557 62.6223 22.9663V23.3178V23.3178ZM50.7041 16.398C47.9317 16.398 46.6402 17.7983 46.6402 20.804V28.9812H47.5148V24.7823C48.1476 25.6232 49.3275 26.1154 50.7532 26.1154C53.5131 26.1154 54.7438 24.7564 54.7438 21.7094V20.7791C54.7438 17.7492 53.4978 16.3978 50.7041 16.3978V16.398ZM53.8444 21.7092C53.8444 24.2879 53.0068 25.2463 50.7532 25.2463C48.6206 25.2463 47.5392 24.1832 47.5392 22.0861V20.804C47.5392 18.2912 48.4562 17.2666 50.7041 17.2666C52.9639 17.2666 53.8444 18.2513 53.8444 20.7791V21.7092V21.7092Z" fill="white"/>
</g>
<defs>
<clipPath id="clip0_1743_17836">
<rect width="98.2405" height="39" fill="white" transform="translate(0.221802)"/>
</clipPath>
</defs>
</svg>
