<svg width="123" height="22" viewBox="0 0 123 22" fill="none" xmlns="http://www.w3.org/2000/svg">
<g clip-path="url(#clip0_209_5722)">
<path fill-rule="evenodd" clip-rule="evenodd" d="M2.11123 19.3363C-0.703781 16.6079 -0.703736 12.1846 2.11132 9.4563L9.75713 2.04622C12.1369 -0.260125 15.7665 -0.616817 18.5328 0.976148C19.3884 1.46886 19.381 2.59915 18.6772 3.28122C17.9734 3.9633 16.8246 3.9046 15.8694 3.63382C14.6461 3.28708 13.2705 3.58121 12.3057 4.51623L4.6599 11.9263C3.25237 13.2905 3.25235 15.5022 4.65986 16.8663C6.06739 18.2305 8.34949 18.2305 9.75705 16.8663L25.0485 2.04632C27.8636 -0.681959 32.4277 -0.68197 35.2428 2.04628L42.8888 9.4563C45.7039 12.1846 45.7039 16.608 42.8888 19.3363C40.0736 22.0646 35.5095 22.0646 32.6944 19.3363L30.1458 16.8663L26.9601 19.9538C24.5804 22.2601 20.9507 22.6168 18.1844 21.0239C17.3287 20.5311 17.3363 19.4008 18.04 18.7188C18.7438 18.0367 19.8926 18.0954 20.8479 18.3662C22.0711 18.7129 23.4467 18.4188 24.4115 17.4838L27.6882 14.308C29.0455 12.9926 31.2461 12.9926 32.6034 14.308L35.243 16.8663C36.6505 18.2304 38.9325 18.2304 40.3402 16.8663C41.7476 15.5022 41.7476 13.2905 40.3402 11.9263L32.6943 4.51631C31.2867 3.15218 29.0047 3.15219 27.5971 4.51631L12.3057 19.3364C9.49054 22.0647 4.9263 22.0646 2.11123 19.3363Z" fill="white"/>
<path d="M73.7918 3.95996C72.0203 3.95996 70.6785 4.57996 69.7928 5.81995C69.0146 4.57996 67.7798 3.95996 66.1429 3.95996C64.452 3.95996 63.2175 4.52829 62.4124 5.69081V4.32164H58.95V17.2383H62.4124V9.97912C62.4124 8.09328 63.4054 7.05994 64.935 7.05994C66.3574 7.05994 67.1895 7.96414 67.1895 9.51412V17.2383H70.6515V9.97912C70.6515 8.09328 71.5643 7.05994 73.1475 7.05994C74.5699 7.05994 75.402 7.96414 75.402 9.51412V17.2383H78.864V9.28161C78.864 6.05245 76.878 3.95996 73.7918 3.95996Z" fill="white"/>
<path d="M91.7348 5.8458C90.6881 4.57996 89.2388 3.95996 87.36 3.95996C85.5619 3.95996 84.0323 4.63162 82.7441 5.94913C81.4826 7.26663 80.8384 8.86831 80.8384 10.78C80.8384 12.6916 81.4826 14.3191 82.7441 15.6366C84.0323 16.9541 85.5619 17.6 87.36 17.6C89.2388 17.6 90.6881 16.98 91.7348 15.7141V17.2383H95.1968V4.32164H91.7348V5.8458ZM85.3474 13.415C84.6495 12.7175 84.3008 11.8391 84.3008 10.78C84.3008 9.72081 84.6495 8.84246 85.3474 8.1708C86.0449 7.47329 86.9306 7.13746 88.0043 7.13746C89.0779 7.13746 89.9636 7.47329 90.6611 8.1708C91.386 8.84246 91.7348 9.72081 91.7348 10.78C91.7348 11.8391 91.386 12.7175 90.6611 13.415C89.9636 14.0866 89.0779 14.4225 88.0043 14.4225C86.9306 14.4225 86.0449 14.0866 85.3474 13.415Z" fill="white"/>
<path d="M107.971 6.54333V4.32166H97.9069V7.44749H103.302L97.6387 15.0167V17.2383H108.24V14.1125H102.282L107.971 6.54333Z" fill="white"/>
<path d="M122.716 12.1491C122.796 11.6583 122.85 11.2191 122.85 10.78C122.85 8.84246 122.206 7.24078 120.918 5.92328C119.656 4.60581 118.019 3.95996 116.06 3.95996C113.993 3.95996 112.276 4.60581 110.961 5.92328C109.645 7.21497 108.975 8.84246 108.975 10.78C108.975 12.7433 109.645 14.3708 110.988 15.6625C112.329 16.9541 114.101 17.6 116.328 17.6C118.905 17.6 120.864 16.6699 122.179 14.8358L119.388 13.2858C118.717 14.1383 117.697 14.5775 116.382 14.5775C114.315 14.5775 113.054 13.7766 112.598 12.1491H122.716ZM112.544 9.56578C112.947 7.91248 114.208 6.95662 116.06 6.95662C117.643 6.95662 118.985 7.80912 119.388 9.56578H112.544Z" fill="white"/>
</g>
<defs>
<clipPath id="clip0_209_5722">
<rect width="123" height="22" fill="white"/>
</clipPath>
</defs>
</svg>
