<svg width="69" height="22" viewBox="0 0 69 22" fill="none" xmlns="http://www.w3.org/2000/svg">
<g clip-path="url(#clip0_1743_17861)">
<path d="M1.00757 17.3305V0.258179H7.66141C8.78717 0.258179 9.72073 0.375126 10.4626 0.608731C11.2051 0.842047 11.8469 1.3301 12.3891 2.07202C12.9313 2.81423 13.2022 3.68555 13.2022 4.68626C13.2022 5.62878 12.9269 6.44799 12.3766 7.14389C11.8266 7.83949 11.0674 8.28384 10.1002 8.47605C11.3013 8.68447 12.2096 9.17252 12.8271 9.93963C13.4439 10.707 13.7528 11.6148 13.7528 12.6659C13.7528 13.9836 13.3212 15.0902 12.458 15.9867C11.5954 16.8835 10.267 17.331 8.47425 17.331H1.00757V17.3305ZM3.92112 7.42526H7.67386C8.44096 7.42526 9.0477 7.1957 9.49349 6.73718C9.93986 6.27865 10.1628 5.69507 10.1628 4.98615C10.1628 4.20255 9.90801 3.62476 9.39999 3.25394C8.89109 2.88284 8.29507 2.69757 7.61191 2.69757H3.92112V7.42526ZM3.92112 14.7669H7.89878C8.74115 14.7669 9.40578 14.546 9.89383 14.1043C10.3816 13.6623 10.6256 13.0662 10.6256 12.315C10.6256 11.5983 10.3775 11.0107 9.88167 10.5516C9.38523 10.093 8.7287 9.86378 7.91094 9.86378H3.92112V14.7669Z" fill="white"/>
<path d="M18.2185 3.2221H15.3669V0.258179H18.2185V3.2221ZM18.2185 17.3308H15.3669V4.69842H18.2185V17.3308Z" fill="white"/>
<path d="M25.5605 17.5936C23.6928 17.5936 22.2668 16.9226 21.2832 15.5798C20.2996 14.2372 19.8069 12.6992 19.8069 10.9647C19.8069 9.09702 20.3514 7.54168 21.4389 6.29954C22.5276 5.05683 23.964 4.43591 25.7486 4.43591C27.4412 4.43591 28.8315 5.04091 29.9197 6.24975C31.0078 7.45889 31.5514 9.03073 31.5514 10.965C31.5514 12.9577 30.9872 14.5608 29.8571 15.774C28.727 16.9869 27.2947 17.5936 25.5605 17.5936ZM25.6606 15.2423C27.5787 15.2423 28.5374 13.8125 28.5374 10.9523C28.5374 9.65975 28.3079 8.64023 27.8493 7.89425C27.3908 7.14799 26.6862 6.77486 25.7353 6.77486C24.7517 6.77486 24.0222 7.16102 23.5463 7.9316C23.071 8.70304 22.833 9.72691 22.833 11.002C22.833 12.3779 23.0852 13.4284 23.5903 14.1538C24.0954 14.8798 24.785 15.2423 25.6606 15.2423Z" fill="white"/>
<path d="M53.417 13.3036L55.9939 13.6542C55.6605 14.7959 55.0094 15.7387 54.0432 16.4803C53.0749 17.2228 51.8623 17.5936 50.4033 17.5936C48.6523 17.5936 47.2429 17.006 46.1756 15.8302C45.1083 14.6543 44.5751 13.0619 44.5751 11.0521C44.5751 9.14304 45.1123 7.56281 46.1883 6.31199C47.264 5.06118 48.7229 4.43591 50.566 4.43591C52.3671 4.43591 53.7595 5.05336 54.7431 6.28739C55.7268 7.52083 56.2194 9.1057 56.2194 11.04L56.2073 11.365H47.5396C47.5396 12.2236 47.6209 12.9117 47.783 13.4284C47.946 13.946 48.2688 14.3958 48.7533 14.7791C49.2365 15.1632 49.8406 15.3549 50.5666 15.3549C51.9749 15.3549 52.9255 14.6711 53.417 13.3036ZM53.2425 9.52631C53.2341 8.61736 52.9611 7.87544 52.4233 7.30054C51.8854 6.72478 51.2205 6.43733 50.4282 6.43733C49.6443 6.43733 48.9898 6.70597 48.4647 7.2441C47.9393 7.78165 47.631 8.54268 47.5393 9.5266H53.2425V9.52631Z" fill="white"/>
<path d="M68.2523 17.3305H65.3999V9.43828C65.3999 8.60488 65.2091 7.9773 64.8256 7.55612C64.4417 7.13493 63.9791 6.92478 63.4372 6.92478C62.6947 6.92478 62.0446 7.24986 61.4859 7.90001C60.9269 8.55075 60.6476 9.53062 60.6476 10.839V17.3302H57.7963V4.69815H60.3978V7.62472C61.3067 5.49883 62.5818 4.4353 64.2249 4.4353C65.3336 4.4353 66.2822 4.78528 67.0704 5.48638C67.859 6.18691 68.2523 7.41659 68.2523 9.17514V17.3305V17.3305Z" fill="white"/>
<path d="M41.9058 5.47188C42.9106 6.29282 43.4128 7.20524 43.4128 8.21001C43.4128 9.33201 42.9424 10.2609 41.9996 10.9976C41.058 11.7352 39.8127 12.1028 38.2637 12.1028C37.5938 12.1028 36.8108 11.9943 35.9149 11.7769C35.3287 12.0447 35.0358 12.4592 35.0358 13.0199C35.0358 13.3305 35.1779 13.6148 35.4627 13.8744C35.747 14.1344 36.1783 14.2638 36.7564 14.2638H40.5242C41.8138 14.2638 42.8249 14.5964 43.5576 15.2625C44.2902 15.9277 44.6567 16.755 44.6567 17.7427C44.6567 18.9402 44.1021 19.932 42.9925 20.7185C41.883 21.5064 40.2399 21.8995 38.0628 21.8995C33.9682 21.8995 31.921 20.7572 31.921 18.4707C31.921 17.3409 32.5367 16.482 33.7676 15.8958C32.9802 15.2263 32.5871 14.5266 32.5871 13.7983C32.5871 12.6934 33.261 11.8137 34.6091 11.1615C33.4364 10.4491 32.8511 9.4698 32.8511 8.22217C32.8511 7.16761 33.2815 6.26677 34.1448 5.52138C35.0071 4.77685 36.3167 4.4043 38.0758 4.4043C38.8791 4.4043 39.6954 4.49201 40.5242 4.6683M34.9981 16.6626C34.5877 17.0392 34.3827 17.4037 34.3827 17.7551C34.3827 18.3329 34.726 18.8412 35.4127 19.2809C36.0993 19.7212 37.1915 19.9409 38.6909 19.9409C40.8927 19.9409 41.9938 19.3756 41.9938 18.2452C41.9938 17.8266 41.8013 17.5102 41.4158 17.2975C41.031 17.0838 40.5908 16.9767 40.0972 16.9767H37.0577C36.4805 16.9764 35.7936 16.8719 34.9981 16.6626ZM38.1378 10.4083C39.6948 10.4083 40.4738 9.67561 40.4738 8.21001C40.4738 7.64901 40.279 7.17659 39.8899 6.79101C39.5 6.40601 38.9332 6.21322 38.1878 6.21322C37.4343 6.21322 36.8505 6.41382 36.4362 6.8159C36.0205 7.21798 35.8142 7.72051 35.8142 8.32319C35.8142 8.94295 36.0194 9.44548 36.4293 9.83048C36.84 10.2155 37.4094 10.4083 38.1378 10.4083Z" fill="white"/>
<path d="M40.2689 4.76763L43.98 3.51855L44.3878 5.94753L42.3387 6.12758" fill="white"/>
</g>
<defs>
<clipPath id="clip0_1743_17861">
<rect width="67.7368" height="22" fill="white" transform="translate(0.778442)"/>
</clipPath>
</defs>
</svg>
