<svg width="171" height="22" viewBox="0 0 171 22" fill="none" xmlns="http://www.w3.org/2000/svg">
<g clip-path="url(#clip0_209_5746)">
<path d="M9.7513 12.0515L19.0026 21.1943H0.5L9.7513 12.0515Z" fill="white"/>
<path d="M0.5 1.57532L9.7513 10.7181L19.0026 1.57532H0.5Z" fill="white"/>
<path d="M10.7489 11.3847L20.0002 20.5275L29.2515 11.3847L20.0002 2.24194L10.7489 11.3847Z" fill="white"/>
<path d="M167.924 6.57529C167.924 6.70814 167.742 6.76636 167.655 6.66485C166.979 5.87521 165.861 5.27664 164.331 5.27664C161.019 5.27664 159.137 7.96052 159.137 11.2101C159.137 14.4388 161.019 17.1212 164.331 17.1212C165.882 17.1212 167.093 16.5764 167.846 15.636C167.93 15.5315 168.119 15.5882 168.119 15.7226V16.7271C168.119 16.8018 168.179 16.8615 168.252 16.8615H170.366C170.44 16.8615 170.5 16.8018 170.5 16.7271V0.634343C170.5 0.560147 170.44 0.5 170.366 0.5H168.057C167.983 0.500818 167.924 0.560726 167.924 0.634343V6.57529ZM168.032 11.2101C168.032 13.2402 166.842 14.8314 164.872 14.8314C162.924 14.8314 161.712 13.2387 161.712 11.2101C161.712 9.13826 162.924 7.56794 164.872 7.56794C166.842 7.56794 168.032 9.13826 168.032 11.2101ZM158.495 5.57518C158.495 5.5057 158.442 5.44779 158.373 5.44233C158.291 5.43599 158.208 5.43201 158.126 5.43039C156.535 5.43039 155.609 6.07076 155.099 6.69769C155.013 6.80218 154.815 6.74546 154.815 6.60813V5.67221C154.815 5.59859 154.756 5.53868 154.682 5.53786H152.567C152.493 5.53868 152.434 5.59859 152.434 5.67221V16.7271C152.434 16.8018 152.494 16.8615 152.567 16.8615H154.877C154.951 16.8607 155.01 16.8008 155.01 16.7271V10.9713C155.01 8.78897 156.092 7.82916 157.91 7.82916C158.065 7.82916 158.229 7.84409 158.342 7.85453C158.38 7.85872 158.418 7.84658 158.448 7.82106C158.477 7.79554 158.494 7.75896 158.495 7.72019V5.57518ZM147.589 11.5609C147.627 11.5553 147.666 11.5667 147.695 11.5922C147.725 11.6177 147.742 11.6548 147.742 11.6938V12.258C147.742 13.785 146.725 15.0941 144.646 15.0941C143.412 15.0941 142.654 14.6792 142.654 13.6104C142.654 12.8252 143.174 12.2371 144.755 11.9953L147.589 11.5624V11.5609ZM144.127 17.1227C145.728 17.1227 146.933 16.654 147.713 15.7345C147.798 15.633 147.984 15.6897 147.99 15.8241C148.021 16.4734 148.113 16.86 148.131 16.86H150.375C150.47 16.86 150.537 16.7615 150.507 16.6704C150.351 16.1748 150.252 15.3718 150.252 14.7224V9.50845C150.252 6.91264 148.693 5.27664 145.404 5.27664C142.09 5.27664 140.733 7.02012 140.465 8.94719C140.461 8.98467 140.473 9.02219 140.498 9.05038C140.523 9.07857 140.558 9.09478 140.596 9.09497H142.845C142.911 9.09497 142.964 9.0472 142.979 8.98302C143.189 8.00231 143.983 7.41568 145.339 7.41568C146.875 7.41568 147.742 8.11277 147.742 9.48755V9.54576C147.742 9.61243 147.693 9.66898 147.627 9.67861L144.494 10.1205C141.53 10.5339 140.188 11.7774 140.188 13.697C140.188 15.6375 141.335 17.1227 144.127 17.1227ZM133.371 17.1227C136.963 17.1227 139.215 14.3955 139.215 11.2116C139.215 8.02619 136.963 5.27664 133.371 5.27664C129.8 5.27664 127.55 8.02619 127.55 11.2101C127.55 14.3955 129.8 17.1212 133.371 17.1212V17.1227ZM130.125 11.2116C130.125 9.0069 131.51 7.56794 133.371 7.56794C135.255 7.56794 136.639 9.0069 136.639 11.2101C136.639 13.3925 135.255 14.8314 133.371 14.8314C131.51 14.8314 130.125 13.3925 130.125 11.2101V11.2116ZM118.065 6.66485C117.979 6.76636 117.798 6.70814 117.798 6.57529V0.634343C117.798 0.560147 117.738 0.5 117.664 0.5H115.355C115.281 0.5 115.221 0.560147 115.221 0.634343V16.7257C115.221 16.8003 115.28 16.86 115.355 16.86H117.469C117.543 16.86 117.603 16.8003 117.603 16.7257V15.7106C117.603 15.5763 117.787 15.5196 117.871 15.624C118.639 16.5719 119.852 17.1227 121.39 17.1227C124.722 17.1227 126.606 14.4388 126.606 11.2116C126.606 7.96052 124.722 5.27664 121.39 5.27664C119.878 5.27664 118.746 5.87521 118.065 6.66485ZM117.71 11.2101C117.71 9.13826 118.899 7.56794 120.87 7.56794C122.817 7.56794 124.031 9.13826 124.031 11.2101C124.031 13.2402 122.817 14.8314 120.87 14.8314C118.901 14.8314 117.71 13.2387 117.71 11.2101ZM113.034 14.7269C113.032 14.6844 113.012 14.6447 112.979 14.6185C112.946 14.5923 112.903 14.5822 112.861 14.5911C112.713 14.6209 112.484 14.6583 112.234 14.6583C111.346 14.6583 110.979 14.2209 110.979 13.3268V7.74407C110.98 7.67046 111.039 7.61122 111.113 7.61122H112.945C113.019 7.61122 113.078 7.55152 113.078 7.47688V5.67519C113.078 5.601 113.018 5.54085 112.945 5.54085H111.111C111.076 5.54085 111.042 5.52669 111.017 5.5015C110.991 5.47631 110.977 5.44214 110.977 5.40651V2.73009C110.977 2.65648 110.918 2.59657 110.845 2.59575H108.536C108.462 2.59575 108.402 2.6559 108.402 2.73009V5.408C108.402 5.44363 108.388 5.4778 108.363 5.50299C108.338 5.52819 108.304 5.54234 108.268 5.54234H106.826C106.753 5.54234 106.693 5.60158 106.692 5.67519V7.47987C106.692 7.5545 106.752 7.61421 106.826 7.61421H108.268C108.343 7.61421 108.402 7.67392 108.402 7.74706V13.591C108.402 15.7285 109.398 16.9287 111.693 16.9287C112.329 16.9287 112.754 16.857 112.936 16.8197C112.994 16.8069 113.035 16.7543 113.034 16.6943V14.7269ZM94.8671 11.2101C94.8671 14.4821 97.1614 17.1212 100.473 17.1212C103.723 17.1212 105.409 14.9031 105.772 12.9118C105.778 12.8737 105.768 12.8346 105.743 12.8051C105.718 12.7757 105.681 12.759 105.642 12.7595H103.261C103.199 12.7601 103.146 12.8016 103.13 12.8611C102.797 14.0269 101.797 14.8314 100.45 14.8314C98.6111 14.8314 97.4424 13.3268 97.4424 11.2101C97.4424 9.07258 98.6111 7.56794 100.45 7.56794C101.797 7.56794 102.797 8.3725 103.13 9.5383C103.146 9.59801 103.2 9.6398 103.261 9.6398H105.642C105.681 9.64038 105.718 9.62368 105.743 9.59423C105.768 9.56478 105.778 9.52567 105.772 9.48755C105.409 7.49629 103.723 5.27813 100.473 5.27813C97.1614 5.27813 94.8671 7.91723 94.8671 11.2101ZM90.5299 12.061C90.5299 13.9149 89.5352 14.8971 87.9339 14.8971C86.3756 14.8971 85.7482 13.8716 85.7482 12.3237V5.67221C85.7482 5.59801 85.6883 5.53786 85.6144 5.53786H83.3052C83.2313 5.53786 83.1714 5.59801 83.1714 5.67221V12.673C83.1714 15.3121 84.5795 17.1212 87.3049 17.1212C88.8186 17.1212 89.8519 16.5495 90.4303 15.8405C90.5181 15.733 90.7262 15.7942 90.7262 15.933V16.7271C90.7262 16.8018 90.7857 16.8615 90.86 16.8615H92.9729C93.0472 16.8615 93.1067 16.8018 93.1067 16.7271V5.67221C93.1067 5.59801 93.0468 5.53786 92.9729 5.53786H90.6638C90.5899 5.53786 90.5299 5.59801 90.5299 5.67221V12.061ZM78.6201 6.57529C78.6201 6.70814 78.4372 6.76636 78.351 6.66485C77.6745 5.87521 76.5563 5.27664 75.0264 5.27664C71.7151 5.27664 69.8312 7.96052 69.8312 11.2101C69.8312 14.4388 71.7151 17.1212 75.0264 17.1212C76.5757 17.1212 77.7875 16.5764 78.5413 15.636C78.6261 15.5315 78.8134 15.5882 78.8134 15.7226V16.7271C78.8134 16.8018 78.8729 16.8615 78.9472 16.8615H81.0616C81.1359 16.8615 81.1954 16.8018 81.1954 16.7271V0.634343C81.1954 0.560147 81.1355 0.5 81.0616 0.5H78.7525C78.6785 0.5 78.6186 0.560147 78.6186 0.634343V6.57529H78.6201ZM78.7272 11.2101C78.7272 13.2402 77.5377 14.8314 75.5676 14.8314C73.6198 14.8314 72.4065 13.2387 72.4065 11.2101C72.4065 9.13826 73.6198 7.56794 75.5676 7.56794C77.5362 7.56794 78.7272 9.13826 78.7272 11.2101ZM62.9485 17.1227C66.5423 17.1227 68.7919 14.3955 68.7919 11.2116C68.7919 8.0247 66.5438 5.27664 62.9485 5.27664C59.3785 5.27664 57.1274 8.02619 57.1274 11.2101C57.1274 14.3955 59.3785 17.1212 62.9485 17.1212V17.1227ZM59.7027 11.2116C59.7027 9.0069 61.087 7.56794 62.9485 7.56794C64.8324 7.56794 66.2167 9.0069 66.2167 11.2101C66.2167 13.3925 64.8324 14.8314 62.9485 14.8314C61.087 14.8314 59.7027 13.3925 59.7027 11.2101V11.2116ZM56.8315 5.57518C56.8318 5.5057 56.7786 5.44779 56.7096 5.44233C56.628 5.43599 56.5462 5.43201 56.4643 5.43039C54.8733 5.43039 53.9455 6.07076 53.4355 6.69769C53.3493 6.80218 53.153 6.74546 53.153 6.60813V5.67221C53.153 5.59801 53.0931 5.53786 53.0192 5.53786H50.9049C50.831 5.53786 50.7711 5.59801 50.7711 5.67221V16.7271C50.7711 16.8018 50.8305 16.8615 50.9049 16.8615H53.214C53.2883 16.8615 53.3478 16.8018 53.3478 16.7271V10.9713C53.3478 8.78897 54.4288 7.82916 56.2472 7.82916C56.4033 7.82916 56.5654 7.84409 56.6784 7.85453C56.7168 7.85872 56.7552 7.84658 56.7843 7.82106C56.8134 7.79554 56.8305 7.75896 56.8315 7.72019V5.57518ZM40.3719 15.833C40.3719 15.6987 40.5563 15.6405 40.644 15.7435C41.3235 16.5421 42.455 17.1227 43.9657 17.1227C47.2977 17.1227 49.1816 14.4388 49.1816 11.2116C49.1816 7.96052 47.2977 5.27664 43.9657 5.27664C42.4267 5.27664 41.2135 5.84536 40.4447 6.78427C40.3615 6.88726 40.1771 6.82905 40.1771 6.69471V5.67221C40.1771 5.59801 40.1172 5.53786 40.0433 5.53786H37.9304C37.8565 5.53786 37.7966 5.59801 37.7966 5.67221V21.2635C37.7966 21.3381 37.8561 21.3978 37.9304 21.3978H40.2396C40.3139 21.3978 40.3734 21.3381 40.3734 21.2635V15.833H40.3719ZM40.2857 11.2101C40.2857 9.11587 41.4751 7.52315 43.4453 7.52315C45.393 7.52315 46.6063 9.11587 46.6063 11.2101C46.6063 13.2402 45.393 14.8314 43.4453 14.8314C41.4766 14.8314 40.2857 13.2387 40.2857 11.2101Z" fill="white"/>
</g>
<defs>
<clipPath id="clip0_209_5746">
<rect width="170" height="21" fill="white" transform="translate(0.5 0.5)"/>
</clipPath>
</defs>
</svg>
