<svg width="121" height="20" viewBox="0 0 121 20" fill="none" xmlns="http://www.w3.org/2000/svg">
<g clip-path="url(#clip0_1733_17309)">
<path d="M11.7657 19.5804V11.2084H3.94561V19.5804H0.478027V0.368657H3.94561V7.87635H11.7657V0.368657H15.2344V19.5804H11.7657Z" fill="white"/>
<path d="M15.2339 0.368291H11.7652V7.87599H3.94512V0.368291H0.477539V19.5801H3.94512V11.2092H11.7652V19.5801H15.2339V0.368291Z" fill="white"/>
<path d="M18.8529 19.5804V0.368657H31.8612V3.53954H22.3159V8.01217H30.6498V11.1543H22.3159V16.4096H31.8589V19.5804H18.8529Z" fill="white"/>
<path d="M31.8606 0.368291H18.8523V19.5801H31.8594V16.4092H22.3153V11.1539H30.6503V8.0118H22.3153V3.53918H31.8606V0.368291Z" fill="white"/>
<path d="M45.8685 19.5804L41.6006 12.5918L37.3235 19.5804H33.5898L39.5819 9.79845L33.6424 0.368657H37.4296L41.7045 7.0937L45.8468 0.368657H49.6101L43.7494 9.82838L49.6855 19.5804H45.8685Z" fill="white"/>
<path d="M49.6097 0.368291H45.8464L41.7041 7.09334L37.4304 0.368291H33.6431L39.5815 9.79809L33.5906 19.5801H37.3231L41.6002 12.5915L45.8681 19.5801H49.6862L43.749 9.82801L49.6097 0.368291Z" fill="white"/>
<path d="M63.4418 19.5804L62.203 15.8962H54.625L53.3896 19.5804H49.8958L56.5866 0.368657H60.3761L67.067 19.5804H63.4418ZM58.4134 4.65137L55.6994 12.7564H61.1286L58.4134 4.65137Z" fill="white"/>
<path d="M55.6997 12.7559L58.4137 4.65203L61.1277 12.7559H55.6997ZM60.3752 0.368169H56.5868L49.896 19.58H53.3898L54.6252 15.8969H62.2021L63.4421 19.58H67.0672L60.3752 0.368169Z" fill="white"/>
<path d="M82.6888 19.5805L80.6793 17.4662C80.1129 18.5803 78.2872 19.9062 75.8929 19.9338C73.6927 19.9603 71.7277 19.3929 70.2206 17.7907C68.2362 15.7063 67.7498 13.1305 67.7498 9.98839C67.7498 6.84512 68.1539 4.35445 70.2217 2.26891C71.6752 0.806043 73.8503 0.0164888 75.8929 0.0164888C78.2336 0.0164888 80.2477 0.88661 81.5379 2.21482C82.4798 3.18738 83.1763 4.41084 83.2848 6.09009H79.735C79.6813 5.32931 79.3091 4.81943 78.9049 4.32567C78.2336 3.53957 77.1854 3.1609 75.8689 3.1609C74.7648 3.1609 73.4963 3.65006 72.7462 4.46033C71.4331 5.84264 71.2721 8.22972 71.2721 9.98839C71.2721 11.7505 71.4583 14.217 72.7736 15.5993C73.5306 16.4096 74.7648 16.8182 75.8689 16.8182C77.1021 16.8182 78.0703 16.3843 78.7188 15.7063C79.735 14.6233 79.9531 13.4321 79.9531 11.9657H75.4099V9.06532H83.3133V19.5805H82.6888Z" fill="white"/>
<path d="M75.893 0.01566C73.8492 0.01566 71.6741 0.806368 70.2218 2.26924C68.154 4.35362 67.7487 6.84544 67.7487 9.98756C67.7487 13.1308 68.2362 15.7055 70.2206 17.7911C71.6935 19.3564 73.6037 19.933 75.7445 19.933C75.7936 19.933 75.8439 19.933 75.893 19.933C78.2873 19.9054 80.1118 18.5795 80.6782 17.4653L82.6888 19.5796H83.3122V9.06564H75.4089V11.9661H79.952C79.952 13.4312 79.7351 14.6225 78.7177 15.7055C78.0703 16.3834 77.1021 16.8185 75.869 16.8185C74.7637 16.8185 73.5295 16.4088 72.7736 15.5985C71.4583 14.2162 71.271 11.7508 71.271 9.98756C71.271 8.22889 71.4332 5.84296 72.7462 4.45951C73.4964 3.65038 74.7637 3.16008 75.869 3.16008C77.1855 3.16008 78.2336 3.53874 78.9038 4.326C79.3092 4.81861 79.6814 5.32848 79.7351 6.08926H83.2848C83.1764 4.41002 82.4799 3.18655 81.5379 2.21399C80.2466 0.886935 78.2336 0.01566 75.893 0.01566Z" fill="white"/>
<path d="M99.4899 17.7657C98.0375 19.2297 96.0497 19.933 94.007 19.933C91.969 19.933 89.9777 19.2297 88.5242 17.7657C86.453 15.6779 86.1036 13.1308 86.1036 9.98871C86.1036 6.84544 86.453 4.2696 88.5242 2.18637C89.9777 0.722348 91.969 0.01566 94.007 0.01566C96.0497 0.01566 98.0375 0.722348 99.4899 2.18637C101.56 4.2696 101.912 6.84544 101.912 9.98871C101.912 13.1308 101.56 15.6779 99.4899 17.7657ZM97.0225 4.46066C96.2666 3.65038 95.1077 3.18655 94.007 3.18655C92.9098 3.18655 91.7463 3.65038 90.9973 4.46066C89.6843 5.84296 89.626 8.22889 89.626 9.98871C89.626 11.7508 89.6843 14.108 90.9973 15.4891C91.7463 16.3052 92.9098 16.7632 94.007 16.7632C95.1077 16.7632 96.2666 16.3052 97.0225 15.4891C98.3367 14.108 98.3926 11.7508 98.3926 9.98871C98.3926 8.22889 98.3367 5.84296 97.0225 4.46066" fill="white"/>
<path d="M89.6257 9.98847C89.6257 8.2298 89.684 5.84272 90.997 4.46042C91.746 3.65014 92.9095 3.18746 94.0067 3.18746C95.1074 3.18746 96.2675 3.65014 97.0222 4.46042C98.3364 5.84272 98.3923 8.2298 98.3923 9.98847C98.3923 11.7506 98.3364 14.1077 97.0222 15.49C96.2675 16.3049 95.1074 16.763 94.0067 16.763C92.9095 16.763 91.746 16.3049 90.997 15.49C89.684 14.1077 89.6257 11.7506 89.6257 9.98847ZM94.0067 0.0165682C91.9698 0.0165682 89.9774 0.723256 88.5239 2.18612C86.4539 4.27051 86.1045 6.8452 86.1045 9.98847C86.1045 13.1306 86.4539 15.6776 88.5239 17.7655C89.9774 19.2295 91.9698 19.9327 94.0067 19.9327C96.0505 19.9327 98.0384 19.2295 99.4896 17.7655C101.56 15.6776 101.911 13.1306 101.911 9.98847C101.911 6.8452 101.56 4.27051 99.4896 2.18612C98.0384 0.723256 96.0505 0.0165682 94.0067 0.0165682Z" fill="white"/>
<path d="M116.226 19.5804L107.974 6.38586V19.5804H104.559V0.368657H108.24L116.384 13.3745V0.368657H119.798V19.5804H116.226Z" fill="white"/>
<path d="M119.798 0.368291H116.385V13.3741L108.241 0.368291H104.56V19.5801H107.974V6.3855L116.225 19.5801H119.798V0.368291Z" fill="white"/>
</g>
<defs>
<clipPath id="clip0_1733_17309">
<rect width="120" height="20" fill="white" transform="translate(0.230713)"/>
</clipPath>
</defs>
</svg>
