<svg width="139" height="18" viewBox="0 0 139 18" fill="none" xmlns="http://www.w3.org/2000/svg">
<g clip-path="url(#clip0_638_10995)">
<path d="M9.34311 0.755615V6.31577H6.43521V0.755615H0.235962V17.2124H6.43521V11.077H9.34311V17.2124H15.5424V0.755615H9.34311Z" fill="white"/>
<path d="M26.9822 0.755615V17.2124H39.5404V12.9304H33.2134V11.0131H38.9014V6.76314H33.2134V4.97366H39.3168V0.755615H26.9822Z" fill="white"/>
<path d="M57.8187 4.07892L59.2247 10.5977H56.2848L57.8187 4.07892ZM53.9202 0.755615L48.4879 17.2443H54.751L55.3582 14.5921H60.1514L60.7266 17.2443H67.533L62.2924 0.755615H53.9202Z" fill="white"/>
<path d="M82.7116 7.56201V4.46238C82.9672 4.43043 83.2229 4.43043 83.4146 4.43043C84.8206 4.43043 85.4277 4.8778 85.4277 5.90035C85.4277 6.95486 84.6608 7.59396 83.1589 7.59396C83.0311 7.56201 82.8714 7.56201 82.7116 7.56201ZM76.5123 17.2124H82.7116V11.2688C82.9033 11.2368 83.127 11.2368 83.2868 11.2368C84.7886 11.2368 84.9804 11.9398 85.236 13.7293L85.3958 14.9436C85.4917 15.6785 85.6834 16.4455 85.8751 17.2443H92.1702C91.8826 16.0301 91.6909 15.0394 91.595 14.3045L91.4033 12.547C91.1157 10.1823 90.5725 9.15975 88.3676 8.77629C90.5086 8.2011 91.627 6.92291 91.627 4.9417C91.627 1.65035 89.518 0.755615 84.9804 0.755615H76.5443V17.2124H76.5123Z" fill="white"/>
<path d="M107.125 11.9398V12.0676C107.125 13.1861 107.636 13.6973 108.691 13.6973C109.65 13.6973 110.225 13.218 110.225 12.515C110.225 11.9718 110.001 11.5883 109.586 11.3646C108.755 10.9492 107.253 10.7255 105.304 10.0864C102.651 9.25561 101.405 7.94546 101.405 5.64471C101.405 2.41727 104.026 0.468018 108.819 0.468018C113.197 0.468018 115.497 2.09772 115.497 5.00561V5.35712H110.033C109.969 4.36651 109.522 3.88719 108.595 3.88719C107.764 3.88719 107.221 4.36651 107.221 4.97366C107.221 6.12403 108.371 6.09208 110.448 6.63531C114.283 7.65787 116.104 8.71238 116.104 11.6842C116.104 15.1673 113.324 17.4361 108.563 17.4361C103.738 17.4361 101.182 15.6146 101.182 12.4831C101.182 12.2913 101.182 12.0996 101.213 11.8759H107.125V11.9398Z" fill="white"/>
<path d="M123.965 0.755615V5.13344H127.96V17.2124H134.319V5.13344H138.281V0.755615H123.965Z" fill="white"/>
</g>
<defs>
<clipPath id="clip0_638_10995">
<rect width="138.045" height="17" fill="white" transform="translate(0.235962 0.5)"/>
</clipPath>
</defs>
</svg>
