<svg width="428" height="21" viewBox="0 0 428 21" fill="none" xmlns="http://www.w3.org/2000/svg">
<g clip-path="url(#clip0_946_299)">
<path fill-rule="evenodd" clip-rule="evenodd" d="M305.486 3.67198C305.346 3.72098 299.425 3.71958 292.328 3.66918C285.23 3.62018 276.942 3.59638 273.913 3.61598C265.802 3.67058 263.89 3.65238 263.309 3.51658C263.023 3.44798 262.668 3.43538 262.522 3.48578C262.179 3.60478 256.9 3.65798 246.967 3.64398C242.612 3.63838 238.873 3.67198 238.657 3.71678C238.441 3.76158 236.256 3.82738 233.802 3.86238C231.348 3.89738 229.267 3.99258 229.179 4.07518C229.09 4.15918 228.527 4.15638 227.927 4.07238C226.952 3.93518 225.662 3.90718 222.97 3.96318C222.369 3.97578 222.208 4.07658 222.437 4.29918C222.741 4.59738 222.703 4.59738 221.862 4.28518C221.122 4.01078 220.456 3.96458 218.137 4.02898C216.405 4.07284 214.671 4.08218 212.938 4.05698C211.469 4.02478 210.558 4.08498 210.556 4.20958C210.555 4.34538 210.018 4.36358 208.928 4.26278C208.034 4.17878 207.078 4.11718 206.802 4.12278C206.527 4.12978 204.611 4.13258 202.545 4.12698C200.48 4.12278 198.583 4.15778 198.331 4.20538C197.774 4.30898 196.242 4.34678 190.022 4.40838C187.405 4.43498 184.588 4.48118 183.762 4.51058C180.159 4.64078 175.98 4.71918 172.491 4.72198C170.426 4.72478 167.494 4.80598 165.978 4.90258C163.161 5.08178 157.063 5.20778 153.999 5.15038C153.059 5.13218 152.103 5.22038 151.876 5.34638C151.54 5.53118 151.462 5.52838 151.457 5.33798C151.453 5.11538 150.28 5.11118 146.443 5.31558C143.562 5.46958 140.797 5.56758 138.426 5.60258C136.911 5.62358 134.432 5.67118 132.916 5.70758C131.402 5.74398 128.696 5.79158 126.906 5.81258C125.115 5.83498 123.651 5.86298 123.649 5.87698C123.649 5.90358 122.887 5.96518 120.96 6.09538C120.309 6.13878 118.054 6.20738 115.951 6.24518C111.829 6.31938 110.123 6.37118 110.121 6.41738C110.121 6.43418 108.769 6.46918 107.116 6.49578C102.314 6.57138 100.285 6.63578 97.3466 6.79958C95.8307 6.88358 93.3499 6.98718 91.8355 7.02918L87.1089 7.15798C86.0259 7.18738 84.9193 7.28818 84.6504 7.38198C84.3357 7.48978 83.8363 7.48278 83.2408 7.36098C82.6354 7.23746 82.0101 7.22937 81.4013 7.33718C80.8975 7.42818 79.2619 7.50518 77.7681 7.50938C76.2759 7.51218 74.4881 7.58498 73.7981 7.66898C72.7992 7.77264 71.796 7.83336 70.7913 7.85098C66.6691 7.91678 62.9857 8.08758 62.4434 8.23738C62.077 8.33958 61.749 8.33398 61.5599 8.22058C61.3663 8.10578 60.6881 8.09738 59.6391 8.19678C58.7452 8.28218 56.8023 8.37738 55.3159 8.40678C53.8325 8.43758 52.4185 8.50478 52.1747 8.55518C51.9309 8.60698 50.777 8.67278 49.6127 8.70078C46.6429 8.77358 44.802 8.86178 42.4823 9.04238C41.3786 9.12918 40.0828 9.15018 39.6011 9.09138C39.1209 9.03258 38.725 9.05078 38.7235 9.13198C38.722 9.21318 38.0704 9.27898 37.2755 9.28038C36.4777 9.28038 35.408 9.33778 34.8953 9.40778C34.3826 9.47778 32.7928 9.53798 31.3625 9.54218C29.9323 9.54638 28.4563 9.63738 28.0825 9.74378C27.7072 9.85158 26.9596 9.93838 26.4218 9.93698C23.2939 9.92998 20.5989 10.035 20.0537 10.1862C19.7094 10.2828 18.6944 10.4074 17.8005 10.4662C16.9036 10.5236 16.1693 10.6258 16.1678 10.693C16.1649 10.7588 15.432 10.8232 14.5382 10.8358C11.787 10.8736 10.9005 10.9688 11.0571 11.2124C11.1665 11.3818 11.0305 11.393 10.5548 11.2488C9.64612 10.973 6.92751 11.1228 5.70265 11.5176C5.13824 11.6996 4.31379 11.8438 3.86759 11.8396C2.77127 11.8256 -0.0478124 12.8154 0.630364 12.9736C0.918478 13.0436 1.01599 13.2508 0.847558 13.4384C0.507731 13.8136 1.04111 14.2756 1.53903 14.0376C1.71338 13.9536 2.36348 13.7912 2.98404 13.6736C3.97988 13.486 4.11285 13.5 4.1099 13.801C4.10694 13.9928 4.55315 14.1888 5.12495 14.249C5.98486 14.3414 6.09271 14.2966 5.80755 13.9648C5.62139 13.7478 5.10869 13.4594 4.66987 13.3222C3.96806 13.1038 4.0242 13.087 5.11904 13.1892C5.80608 13.2522 6.53153 13.3082 6.72952 13.311C6.92751 13.3152 6.95706 13.4384 6.79749 13.5854C6.63644 13.7324 6.75464 13.8556 7.059 13.8584C7.36485 13.8626 7.61455 13.787 7.61602 13.6904C7.6175 13.5952 7.97801 13.57 8.41831 13.6372C8.85861 13.703 9.42006 13.6456 9.66533 13.5112C10.0273 13.3096 10.1115 13.3194 10.1145 13.5602C10.116 13.724 10.5119 13.9214 10.9921 13.9998C12.3042 14.214 16.0748 14.2042 16.846 13.9844C17.3572 13.8388 17.7207 13.864 18.3235 14.0894C18.9707 14.3302 19.1258 14.3386 19.1288 14.1328C19.1288 13.9928 19.5646 13.7422 20.0936 13.577C21.0274 13.2858 21.0421 13.2956 20.6255 13.9424C20.3034 14.4422 20.3773 14.6746 20.921 14.8776C21.8917 15.2416 23.121 15.0596 23.1373 14.5514C23.1461 14.27 23.2776 14.2154 23.5539 14.3764C23.7903 14.5136 24.3311 14.5654 24.8482 14.501C25.3358 14.4394 25.8839 14.4772 26.0657 14.585C26.438 14.809 30.1406 14.5122 30.1436 14.2588C30.1436 14.1776 29.9427 14.1538 29.6959 14.207C29.4492 14.2588 29.1167 14.1762 28.9572 14.025C28.7237 13.7982 28.8537 13.7842 29.659 13.9494C30.2012 14.0614 30.6474 14.0964 30.6489 14.0278C30.6489 13.9592 31.0981 14.0558 31.6462 14.2406C32.5431 14.5458 32.6435 14.5486 32.648 14.2812C32.6495 14.1174 32.9893 13.9872 33.4015 13.9914C33.8152 13.997 34.6456 13.8304 35.2484 13.6218C35.9576 13.3768 36.2324 13.3418 36.0344 13.5238C35.5971 13.9228 36.1452 14.0544 37.0066 13.7562C37.9626 13.4244 38.6673 13.4426 38.6629 13.7982C38.6614 13.9564 38.9422 14.0516 39.2864 14.0124C39.6307 13.9718 39.8567 13.7548 39.7873 13.528C39.6765 13.164 39.7577 13.1472 40.4906 13.3754C41.2397 13.6092 41.2973 13.5784 41.089 13.0506C40.9073 12.5844 40.9915 12.5074 41.516 12.6726C41.9105 12.7944 42.0479 13.0478 41.8602 13.3096C41.5707 13.7128 41.6741 13.7408 43.3481 13.7198C45.1551 13.6974 45.8672 13.4454 45.3959 12.9918C45.2556 12.8574 45.4698 12.653 45.8732 12.5382C46.4789 12.3646 46.6607 12.4234 46.9325 12.8826C47.1837 13.3054 47.5354 13.4384 48.4189 13.4496C49.66 13.4636 50.4032 13.0814 49.6674 12.8056C49.4029 12.7076 49.6482 12.548 50.2643 12.4178C50.8391 12.296 51.1582 12.2806 50.9735 12.3856C50.777 12.4976 51.0548 12.5802 51.6399 12.5872C52.191 12.5928 52.782 12.5186 52.9534 12.422C53.5858 12.0636 54.2181 12.2694 53.8901 12.7272C53.6345 13.0828 53.7232 13.1794 54.2506 13.1234C54.6348 13.0814 55.0204 12.8392 55.1091 12.5816C55.2716 12.1126 56.5053 11.6058 57.0195 11.7976C57.1731 11.855 56.9116 12.107 56.4433 12.3576C55.9276 12.632 55.8094 12.8168 56.1463 12.8196C56.4521 12.8238 56.7048 12.7636 56.7063 12.6852C56.7063 12.6068 57.4007 12.5326 58.2458 12.52C59.1914 12.506 59.6627 12.5648 59.4662 12.6754C58.9787 12.9526 60.0055 12.9008 60.6881 12.6152C61.0191 12.4752 61.5894 12.408 61.9529 12.4612C62.3178 12.5172 62.7463 12.4878 62.9074 12.3968C63.0669 12.3058 63.7392 12.275 64.4026 12.3296C65.0645 12.3828 65.7589 12.3394 65.9466 12.233C66.3854 11.9852 69.7349 12.0188 69.732 12.2722C69.7305 12.3772 69.9787 12.4108 70.2846 12.3464C70.682 12.2624 70.6687 12.1882 70.2343 12.0874C69.398 11.8914 70.3555 11.7052 72.919 11.5666C74.3669 11.4882 75.1175 11.5316 75.6198 11.7192C76.595 12.0832 77.4194 12.0552 77.0279 11.6716C76.728 11.379 76.7679 11.3776 77.5066 11.6506C78.4448 11.9964 80.2518 11.9432 81.6141 11.5288C82.8995 11.1368 83.9678 11.0822 83.591 11.428C83.427 11.5778 83.5097 11.7038 83.7757 11.708C84.0431 11.7108 84.2633 11.624 84.2633 11.512C84.2662 11.3818 84.869 11.3608 86.0171 11.4518C87.5389 11.5722 87.7694 11.5442 87.7738 11.2362C87.7783 10.861 90.2309 10.0728 90.7421 10.28C90.9047 10.3472 90.7569 10.434 90.4127 10.4746C90.0684 10.5152 89.7832 10.6958 89.7803 10.8764C89.7744 11.3216 91.5075 11.1746 92.1399 10.6776L92.6127 10.3052L93.6262 10.6832C94.5393 11.0248 94.7728 11.0402 95.9681 10.8288C97.1294 10.6244 97.2964 10.63 97.2934 10.8708C97.2905 11.0276 97.7248 11.1522 98.2907 11.1592C98.8418 11.1662 99.2925 11.0892 99.2954 10.9912C99.2954 10.8918 99.8598 10.8176 100.548 10.826C101.237 10.8344 101.801 10.7504 101.803 10.6412C101.804 10.5306 102.115 10.4872 102.493 10.5446C102.906 10.6076 103.158 10.5362 103.122 10.3654C103.085 10.1946 103.508 10.0742 104.192 10.0616C105.231 10.0434 105.266 10.0714 104.625 10.413C103.981 10.7574 104.019 10.7854 105.112 10.7812C105.767 10.7784 106.451 10.7252 106.634 10.6608C106.82 10.5964 107.246 10.6314 107.583 10.7364C108.41 10.9926 110.95 10.6118 110.606 10.2828C110.303 9.98878 110.919 9.97338 111.67 10.2548C112.06 10.399 112.5 10.406 113.221 10.2758C114.007 10.1344 114.292 10.154 114.511 10.364C114.664 10.5124 115.207 10.6398 115.715 10.6454C117.02 10.6608 119.548 9.70178 119.168 9.33638C118.976 9.15298 119.064 9.08998 119.398 9.16838C119.694 9.23838 119.817 9.45398 119.672 9.64858C119.356 10.0728 119.746 10.5138 120.44 10.5208C120.716 10.525 120.812 10.4046 120.656 10.2548C120.337 9.94678 121.594 9.88238 122.09 10.1806C122.259 10.2814 122.779 10.3626 123.244 10.3598C123.766 10.3584 123.85 10.3178 123.466 10.2576C123.123 10.2044 122.86 9.98458 122.882 9.76898C122.921 9.39098 122.936 9.39098 123.348 9.74518C123.583 9.94538 123.791 10.0042 123.812 9.87538C123.832 9.74518 124.075 9.69338 124.35 9.75638C124.624 9.82078 124.858 9.76758 124.867 9.63878C124.878 9.49598 125.183 9.54778 125.636 9.77178C126.281 10.0882 126.455 10.1022 126.866 9.87538C127.13 9.73118 127.248 9.51418 127.129 9.39378C127.005 9.26778 127.203 9.21878 127.599 9.27758C128.414 9.40078 128.973 9.86838 128.574 10.0938C128.203 10.3038 128.964 10.3066 130.623 10.0994C131.504 9.98878 131.864 9.84038 131.678 9.66118C131.523 9.51278 131.614 9.39238 131.882 9.39518C132.148 9.39938 132.365 9.47778 132.365 9.57018C132.359 9.94118 134.496 9.68778 134.955 9.26358C135.345 8.90378 135.524 8.87158 135.893 9.08998C136.145 9.23698 136.221 9.50578 136.062 9.68498C135.811 9.96918 135.985 9.99718 137.448 9.91318C138.3 9.86173 139.154 9.83372 140.008 9.82918C140.496 9.83618 140.766 9.76338 140.608 9.66958C140.448 9.57438 140.652 9.50158 141.057 9.50578C141.464 9.50998 141.891 9.61638 142.003 9.74098C142.165 9.91878 142.394 9.91738 143.044 9.73258C143.502 9.60238 144.333 9.54498 144.89 9.60378C145.445 9.66258 146.223 9.59958 146.616 9.46378C147.053 9.31118 147.446 9.28738 147.634 9.39938C148.047 9.64718 150.332 9.58838 150.989 9.31258C151.394 9.14318 151.262 9.08578 150.442 9.07598C149.472 9.06478 149.426 9.02278 149.989 8.66578C150.531 8.32138 150.64 8.31018 150.795 8.58458C150.894 8.75958 151.394 8.90658 151.905 8.91358C152.415 8.91918 153.13 9.03398 153.492 9.16978C153.857 9.30558 155.497 9.44978 157.165 9.49458C159.751 9.56318 160.386 9.51278 161.627 9.14598C162.949 8.75398 164.798 8.70358 164.137 9.07738C163.984 9.16418 164.078 9.23838 164.347 9.24118C164.616 9.24398 164.95 9.14738 165.092 9.02558C165.296 8.84778 165.355 8.84778 165.383 9.02838C165.441 9.38118 168.784 9.35178 169.356 8.99338C169.749 8.74838 169.976 8.73578 170.585 8.92618C171.184 9.11238 171.386 9.11378 171.597 8.93038C171.781 8.76938 171.986 8.76098 172.273 8.89958C172.499 9.01018 173.472 9.10258 174.436 9.10538C175.918 9.11098 176.167 9.05358 176.051 8.73298C175.974 8.52298 176.274 8.24998 176.715 8.12258C177.426 7.91958 177.481 7.94618 177.191 8.35218C177.004 8.61258 177.095 8.86458 177.402 8.93738C177.699 9.00738 177.943 8.97518 177.945 8.86738C177.946 8.75258 178.522 8.71058 179.323 8.76798C180.08 8.82118 180.699 8.87998 180.699 8.89398C180.699 8.91078 181.346 8.97098 182.139 9.02698C183.411 9.11658 183.547 9.08298 183.305 8.73858C183.048 8.37738 183.092 8.37038 183.905 8.64618C184.998 9.01718 185.954 9.04098 185.959 8.69798C185.962 8.55518 186.226 8.38298 186.55 8.31578C186.946 8.23178 187.031 8.28778 186.814 8.48798C186.575 8.70638 186.767 8.78758 187.537 8.79598C188.369 8.80578 188.468 8.75678 188.017 8.55378C187.56 8.34938 187.696 8.30178 188.708 8.31578C189.446 8.32278 189.969 8.43338 189.967 8.57758C189.963 8.90938 190.784 8.90378 191.149 8.56918C191.31 8.42218 191.73 8.31158 192.083 8.32418C192.585 8.34098 192.588 8.36338 192.098 8.42918C191.752 8.47538 191.47 8.59018 191.468 8.68398C191.467 8.78618 191.876 8.78198 192.47 8.67418C193.021 8.57618 193.473 8.55938 193.472 8.64058C193.467 8.98778 196.227 8.87298 197.808 8.45858C199.422 8.03718 199.488 8.03438 199.484 8.38858C199.478 8.85338 201.214 8.91218 201.947 8.47258C202.232 8.30038 202.467 8.26258 202.474 8.38858C202.48 8.51878 203.139 8.62098 204.042 8.63218C205.115 8.64618 205.521 8.57618 205.35 8.41238C205.029 8.10438 208.516 8.04138 209.026 8.34658C209.224 8.46418 209.648 8.50618 209.968 8.43898C210.394 8.35078 210.403 8.25138 210.005 8.07218C209.679 7.92518 209.648 7.78798 209.928 7.72918C210.187 7.67458 210.519 7.80198 210.667 8.01198L210.937 8.39418L212.43 8.03158C214.175 7.60598 214.733 7.57798 214.345 7.93218C214.191 8.07218 214.334 8.23038 214.662 8.28218C214.99 8.33398 214.82 8.37738 214.283 8.38018C213.687 8.38018 213.491 8.44738 213.779 8.54818C214.04 8.64058 214.978 8.68258 215.866 8.64338C217.149 8.58738 217.458 8.49358 217.374 8.18558C217.313 7.95738 217.526 7.82018 217.895 7.84958C218.239 7.88038 218.524 7.80198 218.53 7.67738C218.538 7.52758 218.702 7.54438 219.024 7.72918C219.288 7.88038 219.513 7.92518 219.523 7.82438C219.532 7.72638 219.729 7.75438 219.958 7.88878C220.188 8.02318 221.305 8.18838 222.443 8.25698C224.189 8.36198 224.668 8.31718 225.55 7.96578C226.491 7.58778 226.564 7.58358 226.308 7.91258C226.1 8.18278 226.283 8.28918 227.029 8.32698C228.6 8.40538 229.663 8.41378 231.284 8.35918C232.11 8.33118 233.464 8.30318 234.289 8.29338C235.661 8.27938 235.714 8.25558 234.907 8.02458C234.069 7.78518 234.077 7.76698 235.037 7.68858C235.692 7.63398 236.051 7.69278 236.048 7.85238C236.046 7.99518 236.355 8.06238 236.773 8.00918C237.174 7.95878 237.775 7.98118 238.11 8.05958C238.446 8.13798 239.638 8.19818 240.761 8.19258L245.183 8.17018C246.693 8.16318 247.563 8.07638 247.565 7.93218C247.566 7.79638 248.252 7.71658 249.32 7.72918C250.284 7.74038 251.071 7.83558 251.07 7.94058C251.07 8.04558 251.304 8.08058 251.593 8.02178C251.881 7.96018 252.438 8.01198 252.832 8.13378C253.327 8.28778 253.976 8.31158 254.938 8.20658C255.702 8.12258 257.195 8.09738 258.258 8.15058C259.618 8.21778 260.084 8.18418 259.836 8.03578C259.62 7.90698 259.782 7.85098 260.257 7.89158C260.682 7.92798 261.394 7.80058 261.839 7.60738C262.637 7.26158 262.644 7.26158 262.334 7.65778C262.108 7.94618 262.232 8.06378 262.774 8.06938C263.19 8.07358 263.679 7.99378 263.862 7.89018C264.045 7.78518 264.509 7.74878 264.895 7.80618C265.282 7.86358 265.595 7.80198 265.596 7.66618C265.602 7.20138 267.078 7.21818 267.916 7.69138C268.588 8.07078 269.08 8.14778 270.72 8.13378C271.84 8.12258 272.826 8.00918 272.974 7.87338C273.118 7.74038 273.575 7.68298 273.986 7.74458C274.398 7.80618 275.085 7.75858 275.512 7.63818C276.181 7.44918 276.249 7.47578 275.994 7.82018C275.831 8.04138 275.765 8.22338 275.844 8.22478C276.353 8.23038 278.842 7.70258 279.21 7.51078C279.489 7.36378 279.537 7.45478 279.337 7.75718L279.02 8.23598L283.4 8.21918C285.809 8.20938 288.006 8.12398 288.281 8.02878C288.554 7.93358 288.919 7.55558 289.09 7.18878C289.262 6.82338 289.686 6.49298 290.031 6.45518C290.516 6.40338 290.54 6.49858 290.135 6.87238C289.847 7.13838 289.721 7.39878 289.856 7.44918C289.99 7.49958 289.873 7.68858 289.596 7.87058C289.204 8.12678 289.265 8.20378 289.86 8.21078C290.283 8.21638 290.628 8.14358 290.63 8.05118C290.631 7.95878 291.027 7.89578 291.509 7.91118C291.991 7.92938 292.868 7.89018 293.461 7.82718C294.105 7.75998 294.805 7.80898 295.212 7.95318C296.305 8.34098 297.836 8.25558 298.481 7.77258L299.072 7.32878L299.106 7.83138C299.14 8.33118 299.154 8.33258 302.02 8.27938C303.604 8.25138 305.955 8.23738 307.244 8.24718C309.196 8.26118 309.648 8.20098 309.938 7.88038C310.248 7.53738 310.34 7.52898 310.751 7.80058C311.113 8.03858 311.43 8.06798 312.191 7.93078C312.863 7.81038 313.168 7.81318 313.166 7.94058C313.165 8.04418 313.502 8.13238 313.915 8.13658C314.328 8.14218 314.666 8.22338 314.664 8.31858C314.66 8.59578 324.01 8.52998 325.006 8.24858C325.697 8.05258 325.888 8.05258 326.068 8.24858C326.229 8.42498 326.641 8.38158 327.6 8.08758C328.323 7.86498 328.605 7.82438 328.228 7.99518C327.377 8.38158 327.882 8.61678 328.924 8.31858C329.547 8.14078 329.692 8.14638 329.703 8.34658C329.711 8.51458 329.957 8.48378 330.45 8.25698C330.854 8.07078 331.332 7.97278 331.514 8.04138C331.696 8.10858 332.164 8.02738 332.554 7.85938C333.076 7.63678 333.334 7.61718 333.525 7.78518C333.667 7.91118 334.046 7.96998 334.367 7.91538C334.689 7.85938 334.413 7.96578 333.752 8.15058C332.98 8.36758 332.749 8.53278 333.107 8.61678C333.41 8.68818 334.159 8.54678 334.77 8.30178C335.952 7.82998 337.496 7.70538 337.044 8.11978C336.78 8.36058 337.541 8.77778 338.259 8.78618C338.461 8.78898 338.727 8.60978 338.853 8.38858C339.074 7.99378 339.086 7.99378 339.423 8.36198C339.735 8.70358 340.12 8.73998 343.613 8.74558C345.728 8.74978 347.515 8.73578 347.585 8.71758C347.965 8.60558 352.143 8.68818 353.154 8.82538C353.91 8.92758 354.603 8.90938 355.07 8.77638C355.555 8.63778 355.914 8.63078 356.135 8.75678C356.751 9.10258 358.654 9.18518 359.333 8.89538C359.885 8.65738 359.851 8.63218 359.102 8.72458C358.558 8.79178 358.226 8.74698 358.227 8.60558C358.233 8.20238 360.116 8.32418 360.43 8.74698C360.677 9.07878 360.806 9.10118 361.221 8.87998C361.494 8.73438 361.72 8.70778 361.723 8.82118C361.731 9.12918 363.173 9.28598 364.236 9.09418C364.776 8.99618 365.29 8.99618 365.448 9.08998C365.777 9.28598 369.786 9.28318 370.73 9.08438C371.175 8.99198 371.278 9.01298 371.04 9.14738C370.81 9.27758 371.092 9.35178 371.837 9.35598C372.946 9.36158 376.494 9.55198 376.492 9.60518C376.492 9.61918 377.564 9.66818 378.87 9.71578C380.177 9.76198 381.25 9.74798 381.251 9.68358C381.253 9.62058 382.268 9.57298 383.506 9.57858C385.164 9.58698 385.756 9.65838 385.755 9.85158C385.752 10.0238 386.09 10.0868 386.729 10.0336C387.268 9.99018 387.812 10.0476 387.94 10.1624C388.067 10.2772 388.193 10.224 388.216 10.0434C388.256 9.74518 388.332 9.74238 389.042 10.0084C389.781 10.2842 390.286 10.329 394.011 10.448C394.839 10.476 396.001 10.5572 396.595 10.6328C397.191 10.7084 397.817 10.6888 397.989 10.5922C398.188 10.4802 398.739 10.4802 399.5 10.5936C400.335 10.7196 400.774 10.7084 400.945 10.56C401.081 10.4424 401.208 10.4886 401.227 10.6622C401.246 10.8358 401.433 10.9828 401.638 10.9884C403.219 11.036 406.173 11.2852 406.891 11.4308C407.603 11.575 407.768 11.5316 407.779 11.197C407.789 10.8652 407.885 10.8386 408.274 11.0612C408.67 11.288 408.757 11.2922 408.766 11.0822C408.771 10.9422 408.919 10.8792 409.092 10.9436C409.265 11.0094 409.828 10.9856 410.344 10.8932C411.424 10.6972 411.456 10.7308 410.785 11.3496C410.398 11.7066 410.445 11.8074 411.001 11.8144C411.391 11.8186 411.843 11.7472 412.007 11.6534C412.343 11.4644 413.844 11.6352 414.359 11.9194C414.544 12.023 415.302 12.1434 416.044 12.1882C416.787 12.233 417.713 12.3884 418.105 12.534C418.677 12.7482 419.006 12.7594 419.795 12.5928C420.334 12.478 420.776 12.3296 420.776 12.2638C420.779 12.0972 421.808 12.1868 423.152 12.4696C424.008 12.6488 424.276 12.6544 424.279 12.4906C424.281 12.3632 424.683 12.4136 425.283 12.6166C426.765 13.1192 427.101 12.8168 425.931 12.0356C425.141 11.5078 425.014 11.2474 425.383 10.9072C425.713 10.6034 425.687 10.4424 425.303 10.392C424.996 10.35 424.533 10.1134 424.275 9.86278C424.018 9.61358 423.375 9.36298 422.848 9.30698C422.32 9.25098 421.778 9.09978 421.645 8.97098C421.379 8.71618 412.202 7.55698 411.379 7.67458C411.271 7.68858 411.011 7.59898 410.8 7.47158C410.589 7.34558 408.313 7.07538 405.744 6.87098C403.769 6.71675 401.795 6.55295 399.822 6.37958C398.49 6.27244 397.155 6.18843 395.82 6.12758C394.305 6.05338 392.631 5.94278 392.098 5.87978C391.564 5.81678 389.876 5.72578 388.345 5.67818C386.813 5.63058 384.997 5.53258 384.31 5.45838C383.623 5.38558 381.145 5.27498 378.805 5.21338C376.464 5.15038 374.549 5.08738 374.549 5.07338C374.549 5.05938 373.593 5.00618 372.423 4.95438C371.12 4.89558 370.296 4.93478 370.294 5.05238C370.291 5.18398 370.067 5.17698 369.595 5.02998C369.213 4.91098 367.075 4.77798 364.842 4.73598C362.61 4.69398 360.785 4.61418 360.785 4.55818C360.786 4.50358 357.125 4.39438 352.651 4.31458C348.176 4.23478 344.178 4.16058 343.764 4.15218C343.352 4.14238 341.548 4.14658 339.759 4.16058C337.968 4.17458 335.941 4.12838 335.252 4.05838C334.565 3.98838 333.269 3.98138 332.372 4.04298C331.477 4.10318 330.744 4.08638 330.746 4.00518C330.747 3.92118 330.128 3.89318 329.37 3.93938C327.427 4.05698 309.851 3.87778 307.602 3.71678C306.578 3.64398 305.627 3.62438 305.486 3.67198ZM349.717 7.88038C349.72 7.95178 349.399 7.96158 349.005 7.90278C348.609 7.84398 348.418 7.67458 348.578 7.52758C348.816 7.31058 348.949 7.30638 349.29 7.50658C349.522 7.64098 349.712 7.80898 349.717 7.88038ZM253.632 6.47338C253.652 6.54758 253.742 6.75338 253.833 6.92698C253.923 7.10198 253.818 7.20418 253.601 7.15238C253.005 7.01238 252.621 6.32638 253.141 6.33198C253.391 6.33618 253.612 6.39918 253.632 6.47338ZM311.675 7.10758C311.675 7.15238 311.448 7.23498 311.172 7.29238C310.895 7.35118 310.671 7.31198 310.672 7.20838C310.674 7.10338 310.9 7.01938 311.176 7.02218C311.451 7.02638 311.675 7.06418 311.675 7.10758ZM291.889 7.51358C292.059 7.61578 291.958 7.69558 291.666 7.69138C291.375 7.68858 291.137 7.60458 291.138 7.50518C291.14 7.40718 291.24 7.32598 291.361 7.32738C291.549 7.35185 291.73 7.41544 291.889 7.51358ZM248.075 7.25318C248.075 7.29658 247.847 7.37918 247.571 7.43798C247.296 7.49538 247.07 7.45758 247.071 7.35258C247.073 7.24758 247.299 7.16358 247.575 7.16778C247.85 7.17058 248.075 7.20978 248.075 7.25178V7.25318ZM250.943 7.31618C250.776 7.37358 250.344 7.37498 249.984 7.31898C249.585 7.25738 249.704 7.21538 250.286 7.21398C250.815 7.21258 251.109 7.25878 250.943 7.31618ZM252.831 7.40998C252.999 7.51078 252.773 7.58918 252.327 7.58498C251.881 7.57938 251.658 7.49538 251.829 7.39878C252 7.30078 252.226 7.22238 252.331 7.22378C252.436 7.22518 252.661 7.30778 252.831 7.40998ZM258.088 7.45198C258.086 7.53878 257.578 7.65078 256.957 7.69978C255.869 7.78518 255.863 7.77958 256.805 7.53878C257.943 7.24758 258.091 7.23778 258.088 7.45198ZM240.061 7.33718C240.061 7.38198 239.835 7.46458 239.558 7.52198C239.282 7.58078 239.057 7.54158 239.059 7.43798C239.06 7.33298 239.286 7.24898 239.561 7.25178C239.838 7.25598 240.062 7.29378 240.061 7.33718ZM216.89 7.27138C216.723 7.33018 216.292 7.33158 215.931 7.27418C215.533 7.21258 215.651 7.17058 216.234 7.16918C216.763 7.16918 217.057 7.21398 216.89 7.27138ZM222.366 7.98258C222.205 8.12398 222.087 8.08058 222.066 7.87058C222.047 7.68018 222.167 7.57518 222.332 7.63678C222.498 7.69838 222.514 7.85378 222.366 7.98258ZM398.269 10.1316C398.263 10.5838 397.477 10.5544 397.378 10.098C397.322 9.83898 397.491 9.69758 397.777 9.76478C398.051 9.82918 398.272 9.99438 398.269 10.1316ZM190.229 7.74738C190.397 7.84818 190.297 7.92798 190.006 7.92518C189.713 7.92098 189.477 7.83698 189.477 7.73758C189.478 7.63958 189.579 7.55838 189.701 7.56118C189.889 7.58588 190.069 7.64944 190.229 7.74738ZM217.845 8.17438C217.996 8.31998 218.321 8.44038 218.567 8.44458C219.287 8.45298 219.084 8.13798 218.294 8.01898C217.809 7.94618 217.66 7.99798 217.845 8.17438ZM413.248 10.5068C412.685 10.7434 412.713 10.8148 413.432 10.9688C414.628 11.225 414.543 11.5596 413.343 11.3146C412.83 11.2096 412.232 11.1788 412.013 11.2474C411.793 11.3146 411.765 11.225 411.95 11.0444C412.133 10.8652 412.285 10.6034 412.288 10.4634C412.289 10.3234 412.656 10.2114 413.102 10.217C413.791 10.2254 413.813 10.2702 413.248 10.5068ZM163.275 8.00078C163.113 8.14218 162.995 8.09878 162.973 7.88878C162.955 7.69838 163.074 7.59338 163.239 7.65498C163.405 7.71658 163.421 7.87198 163.275 8.00078ZM403.773 10.546C403.773 10.5894 403.546 10.672 403.269 10.7308C402.993 10.7896 402.768 10.7504 402.77 10.6468C402.771 10.5404 402.997 10.4578 403.274 10.4606C403.548 10.4648 403.773 10.5026 403.773 10.546ZM405.274 10.665C405.273 10.763 405.047 10.8428 404.77 10.8386C404.496 10.8358 404.271 10.7518 404.272 10.6524C404.274 10.5544 404.5 10.476 404.775 10.4788C405.051 10.4816 405.276 10.5656 405.274 10.665ZM161.93 8.13098C161.927 8.32978 161.72 8.48938 161.47 8.48658C161.221 8.48378 161.137 8.31998 161.283 8.12258C161.431 7.92658 161.637 7.76698 161.742 7.76838C161.847 7.76978 161.931 7.93218 161.93 8.13098ZM164.934 8.16738C164.932 8.26538 164.832 8.34658 164.711 8.34518C164.522 8.32051 164.342 8.25643 164.183 8.15758C164.013 8.05678 164.114 7.97698 164.406 7.98118C164.697 7.98398 164.935 8.06798 164.934 8.16738ZM160.263 8.50618C160.102 8.64758 159.984 8.60418 159.962 8.39418C159.943 8.20238 160.062 8.09878 160.228 8.16038C160.393 8.22198 160.41 8.37738 160.263 8.50618ZM419.776 12.1602C419.774 12.2918 419.435 12.3954 419.022 12.3898C418.23 12.3814 418.047 12.219 418.61 12.0258C419.166 11.8326 419.78 11.904 419.776 12.1602ZM92.5137 10.9212C92.3305 11.0248 92.2876 11.1494 92.4191 11.1984C92.5491 11.246 92.7914 11.1634 92.9569 11.0122C93.2997 10.6986 93.0116 10.6398 92.5137 10.9212ZM43.2757 12.7062C42.9152 12.8322 42.6817 12.8392 42.6847 12.7272C42.6847 12.6236 42.8369 12.4892 43.0216 12.4248C43.2121 12.3601 43.419 12.3528 43.614 12.4038C43.7559 12.457 43.6037 12.5928 43.2757 12.7062ZM15.1306 13.4818C15.1306 13.5196 14.7347 13.6568 14.25 13.787C13.4522 14.0012 13.4359 13.9956 14.0624 13.717C14.7199 13.4244 15.1321 13.3334 15.1306 13.4818ZM22.4931 14.403C22.4044 14.7978 21.6213 14.8972 21.6272 14.5122C21.6302 14.298 22.0779 14.0362 22.4369 14.0418C22.5108 14.0418 22.5374 14.2056 22.4931 14.403Z" fill="#FFBD14"/>
</g>
<defs>
<clipPath id="clip0_946_299">
<rect width="427" height="21" fill="white" transform="translate(0.5)"/>
</clipPath>
</defs>
</svg>
