<svg width="58" height="58" viewBox="0 0 58 58" fill="none" xmlns="http://www.w3.org/2000/svg">
<path d="M2 5H18.2C21.0643 5 23.8114 6.12381 25.8368 8.12419C27.8621 10.1246 29 12.8377 29 15.6667V53C29 50.8783 28.1466 48.8434 26.6276 47.3431C25.1085 45.8429 23.0483 45 20.9 45H2V5Z" stroke="white" stroke-width="2" stroke-linecap="round" stroke-linejoin="round"/>
<path d="M56 5H39.8C36.9357 5 34.1886 6.12381 32.1632 8.12419C30.1379 10.1246 29 12.8377 29 15.6667V53C29 50.8783 29.8534 48.8434 31.3724 47.3431C32.8915 45.8429 34.9517 45 37.1 45H56V5Z" stroke="white" stroke-width="2" stroke-linecap="round" stroke-linejoin="round"/>
</svg>
