<svg width="58" height="58" viewBox="0 0 58 58" fill="none" xmlns="http://www.w3.org/2000/svg">
<path d="M41 52V47C41 44.3478 39.9728 41.8043 38.1443 39.9289C36.3158 38.0536 33.8359 37 31.25 37H11.75C9.16414 37 6.68419 38.0536 4.85571 39.9289C3.02723 41.8043 2 44.3478 2 47V52" stroke="white" stroke-width="2" stroke-linecap="round" stroke-linejoin="round"/>
<path d="M21.5 27C26.7467 27 31 22.5228 31 17C31 11.4772 26.7467 7 21.5 7C16.2533 7 12 11.4772 12 17C12 22.5228 16.2533 27 21.5 27Z" stroke="white" stroke-width="2" stroke-linecap="round" stroke-linejoin="round"/>
<path d="M56 52V46.8893C55.9985 44.6245 55.3102 42.4245 54.0432 40.6345C52.7762 38.8446 51.0023 37.5662 49 37" stroke="white" stroke-width="2" stroke-linecap="round" stroke-linejoin="round"/>
<path d="M39 8C41.0024 8.54009 42.7772 9.76688 44.0446 11.487C45.3121 13.207 46 15.3226 46 17.5C46 19.6774 45.3121 21.793 44.0446 23.513C42.7772 25.2331 41.0024 26.4599 39 27" stroke="white" stroke-width="2" stroke-linecap="round" stroke-linejoin="round"/>
</svg>
