<svg width="20" height="20" viewBox="0 0 20 20" fill="none" xmlns="http://www.w3.org/2000/svg">
<path d="M7.08403 10C7.08403 8.38923 8.38952 7.0831 10.0004 7.0831C11.6112 7.0831 12.9174 8.38923 12.9174 10C12.9174 11.6108 11.6112 12.9169 10.0004 12.9169C8.38952 12.9169 7.08403 11.6108 7.08403 10ZM5.50715 10C5.50715 12.4815 7.51875 14.493 10.0004 14.493C12.4819 14.493 14.4935 12.4815 14.4935 10C14.4935 7.5185 12.4819 5.50698 10.0004 5.50698C7.51875 5.50698 5.50715 7.5185 5.50715 10ZM13.6214 5.32883C13.6212 5.90873 14.0911 6.37902 14.671 6.37925C15.2509 6.37948 15.7212 5.90957 15.7215 5.32967C15.7217 4.74977 15.2518 4.27948 14.6718 4.27925H14.6714C14.0918 4.27952 13.6219 4.74921 13.6214 5.32883ZM6.46521 17.1223C5.61208 17.0834 5.14839 16.9413 4.84023 16.8213C4.4317 16.6622 4.14021 16.4728 3.83373 16.1668C3.52726 15.8608 3.33755 15.5695 3.17921 15.161C3.05908 14.853 2.91698 14.3892 2.8782 13.5361C2.83577 12.6138 2.8273 12.3367 2.8273 10.0001C2.8273 7.6634 2.83647 7.38711 2.8782 6.46402C2.91705 5.61093 3.0602 5.14802 3.17921 4.83911C3.33825 4.43059 3.52768 4.13911 3.83373 3.83265C4.13979 3.52619 4.431 3.33649 4.84023 3.17815C5.14825 3.05803 5.61208 2.91593 6.46521 2.87715C7.38757 2.83473 7.66464 2.82626 10.0004 2.82626C12.3361 2.82626 12.6134 2.83543 13.5365 2.87715C14.3897 2.916 14.8526 3.05915 15.1615 3.17815C15.5701 3.33649 15.8615 3.52661 16.168 3.83265C16.4745 4.13869 16.6635 4.43059 16.8225 4.83911C16.9427 5.14711 17.0848 5.61093 17.1236 6.46402C17.166 7.38711 17.1744 7.6634 17.1744 10.0001C17.1744 12.3367 17.166 12.613 17.1236 13.5361C17.0847 14.3892 16.9419 14.8529 16.8225 15.161C16.6635 15.5695 16.4741 15.861 16.168 16.1668C15.862 16.4726 15.5701 16.6622 15.1615 16.8213C14.8535 16.9414 14.3897 17.0835 13.5365 17.1223C12.6142 17.1647 12.3371 17.1732 10.0004 17.1732C7.66359 17.1732 7.38729 17.1647 6.46521 17.1223ZM6.39276 1.30299C5.46123 1.34541 4.82469 1.49311 4.2688 1.70941C3.6931 1.93278 3.20574 2.23245 2.71873 2.71867C2.23172 3.20489 1.93281 3.693 1.70943 4.26868C1.49312 4.8249 1.34541 5.46106 1.30299 6.39255C1.25987 7.32551 1.25 7.62378 1.25 10C1.25 12.3762 1.25987 12.6745 1.30299 13.6074C1.34541 14.539 1.49312 15.1751 1.70943 15.7313C1.93281 16.3066 2.23179 16.7953 2.71873 17.2813C3.20567 17.7673 3.6931 18.0666 4.2688 18.2906C4.82574 18.5069 5.46123 18.6546 6.39276 18.697C7.32624 18.7394 7.62404 18.75 10.0004 18.75C12.3767 18.75 12.6749 18.7401 13.6079 18.697C14.5395 18.6546 15.1757 18.5069 15.7319 18.2906C16.3073 18.0666 16.795 17.7675 17.282 17.2813C17.769 16.7951 18.0673 16.3066 18.2913 15.7313C18.5076 15.1751 18.656 14.5389 18.6977 13.6074C18.7401 12.6738 18.75 12.3762 18.75 10C18.75 7.62378 18.7401 7.32551 18.6977 6.39255C18.6553 5.46099 18.5076 4.82455 18.2913 4.26868C18.0673 3.69335 17.7682 3.20566 17.282 2.71867C16.7957 2.23168 16.3073 1.93278 15.7326 1.70941C15.1757 1.49311 14.5395 1.34471 13.6086 1.30299C12.6756 1.26057 12.3774 1.25 10.001 1.25C7.62474 1.25 7.32624 1.25987 6.39276 1.30299Z" fill="white"/>
</svg>
