<svg width="20" height="20" viewBox="0 0 20 20" fill="none" xmlns="http://www.w3.org/2000/svg">
<path fill-rule="evenodd" clip-rule="evenodd" d="M18.6829 1.28684L0.951385 8.62328C0.515502 8.80477 0.515502 9.46718 0.955617 9.64412L5.27636 11.3727L6.94795 17.1394C7.05374 17.5069 7.47693 17.643 7.75623 17.398L10.1642 15.2928C10.4181 15.0705 10.7778 15.0614 11.0402 15.2656L15.3821 18.6457C15.6825 18.8771 16.1057 18.7047 16.1777 18.3145L19.3643 1.90842C19.4447 1.48647 19.0596 1.13258 18.6829 1.28684ZM15.3017 5.1252L8.33177 12.0715C8.08632 12.3165 7.92974 12.6431 7.88319 12.997L7.64621 14.8844C7.61658 15.134 7.2865 15.1612 7.21879 14.9162L6.3047 11.4771C6.19891 11.0869 6.35125 10.665 6.67711 10.4517L15.1197 4.87566C15.272 4.77585 15.4286 4.99362 15.2974 5.1252H15.3017Z" fill="white"/>
</svg>
