<svg width="20" height="20" viewBox="0 0 20 20" fill="none" xmlns="http://www.w3.org/2000/svg">
<path d="M19.375 4.27567C18.6729 4.58185 17.9282 4.78284 17.1656 4.87193C17.9599 4.40328 18.5698 3.66116 18.857 2.77693C18.1019 3.21803 17.2757 3.52881 16.4143 3.69584C15.7125 2.95992 14.7128 2.5 13.6064 2.5C11.4819 2.5 9.75947 4.19549 9.75947 6.28666C9.75947 6.5835 9.79353 6.87247 9.85908 7.14969C6.66206 6.99172 3.82759 5.4842 1.93025 3.19316C1.59919 3.75244 1.4095 4.40299 1.4095 5.09688C1.4095 6.41067 2.08867 7.56967 3.1208 8.24878C2.50992 8.22994 1.91249 8.06753 1.37837 7.77508C1.37815 7.79095 1.37815 7.80681 1.37815 7.82274C1.37815 9.65746 2.70413 11.188 4.46384 11.5359C3.89738 11.6875 3.3032 11.7097 2.72668 11.6008C3.21616 13.1052 4.63684 14.1999 6.32009 14.2306C5.00356 15.2462 3.34485 15.8516 1.54265 15.8516C1.2321 15.8516 0.925952 15.8336 0.625 15.7987C2.32737 16.8731 4.34937 17.5 6.52173 17.5C13.5974 17.5 17.4666 11.7298 17.4666 6.72582C17.4666 6.56158 17.4629 6.39827 17.4555 6.2359C18.2086 5.69998 18.8586 5.03618 19.375 4.27567Z" fill="white"/>
</svg>
